<?xml version="1.0" encoding="UTF-8" standalone="no"?>
<!-- Created with Inkscape (http://www.inkscape.org/) -->

<svg
   version="1.1"
   id="svg1"
   width="450"
   height="550"
   viewBox="0 0 450 550"
   xmlns="http://www.w3.org/2000/svg"
   xmlns:svg="http://www.w3.org/2000/svg">
  <defs
     id="defs1" />
  <path
     style="fill:#00ffff;stroke:#ffffff;stroke-width:1.00493"
     d="m 202.78425,548.51003 c -47.34935,-0.29094 -86.3604,-0.7999 -86.69124,-1.13103 -0.58337,-0.58389 27.24183,-45.40754 81.83012,-131.82024 20.81112,-32.94381 26.77288,-41.70321 27.7007,-40.69975 1.7635,1.90724 58.22871,93.14709 97.03311,156.7919 l 10.87561,17.83754 -22.32929,-0.22472 c -12.28111,-0.1236 -61.06966,-0.46276 -108.41901,-0.7537 z"
     id="path3" />
  <path
     style="fill:#00ffff;stroke:#ffffff;stroke-width:1.00493"
     d="M 223.35139,184.25226 C 220.64883,179.93901 188.15317,124.34841 153.82953,65.320585 135.18875,33.263255 119.04186,5.564815 117.94755,3.768495 L 115.95789,0.50246501 H 225.00894 334.05998 L 319.19824,25.877005 c -8.17396,13.95599 -32.17163,54.99491 -53.32819,91.197595 -21.15654,36.20268 -39.04555,66.65873 -39.75335,67.68013 -1.22859,1.77294 -1.35386,1.75018 -2.76531,-0.50247 z"
     id="path4" />
</svg>
